<svg xmlns="http://www.w3.org/2000/svg" width="210" height="315" viewBox="0 0 210 315"><g transform="translate(-210.001 639.891)"><rect width="209.004" height="314.004" x="210.499" y="-639.393" rx="15" ry="15" style="opacity:1;fill:#fdfeee;fill-opacity:1;stroke:#000;stroke-width:.996047;stroke-linecap:butt;stroke-linejoin:round;stroke-miterlimit:4;stroke-dasharray:none;stroke-opacity:1"/><path d="M265.499-564.394h99.005v164.005h-99.005z" style="opacity:1;fill:none;fill-opacity:1;stroke:#000;stroke-width:.995028;stroke-linecap:butt;stroke-linejoin:round;stroke-miterlimit:4;stroke-dasharray:none;stroke-opacity:1"/><text xml:space="preserve" x="211.754" y="-621.134" style="color:#000;font-style:normal;font-variant:normal;font-weight:400;font-stretch:normal;line-height:0%;font-family:Arial;-inkscape-font-specification:&quot;Arial, Normal&quot;;text-indent:0;text-align:start;text-decoration:none;text-decoration-line:none;text-decoration-style:solid;text-decoration-color:#000;letter-spacing:0;word-spacing:0;text-transform:none;writing-mode:lr-tb;direction:ltr;baseline-shift:baseline;text-anchor:start;white-space:normal;clip-rule:nonzero;display:inline;overflow:visible;visibility:visible;opacity:1;isolation:auto;mix-blend-mode:normal;color-interpolation:sRGB;color-interpolation-filters:linearRGB;solid-color:#000;solid-opacity:1;fill:#fe0000;fill-opacity:1;fill-rule:nonzero;stroke:#000;stroke-width:1px;stroke-linecap:butt;stroke-linejoin:miter;stroke-miterlimit:4;stroke-dasharray:none;stroke-dashoffset:0;stroke-opacity:1;color-rendering:auto;image-rendering:auto;shape-rendering:auto;text-rendering:auto" transform="scale(1.03962 .9619)"><tspan x="211.754" y="-621.134" style="font-size:52.5px;line-height:1.25">2</tspan></text><text xml:space="preserve" x="-405.54" y="370.125" style="color:#000;font-style:normal;font-variant:normal;font-weight:400;font-stretch:normal;line-height:0%;font-family:Arial;-inkscape-font-specification:&quot;Arial, Normal&quot;;text-indent:0;text-align:start;text-decoration:none;text-decoration-line:none;text-decoration-style:solid;text-decoration-color:#000;letter-spacing:0;word-spacing:0;text-transform:none;writing-mode:lr-tb;direction:ltr;baseline-shift:baseline;text-anchor:start;white-space:normal;clip-rule:nonzero;display:inline;overflow:visible;visibility:visible;opacity:1;isolation:auto;mix-blend-mode:normal;color-interpolation:sRGB;color-interpolation-filters:linearRGB;solid-color:#000;solid-opacity:1;fill:#fe0000;fill-opacity:1;fill-rule:nonzero;stroke:#000;stroke-width:1px;stroke-linecap:butt;stroke-linejoin:miter;stroke-miterlimit:4;stroke-dasharray:none;stroke-dashoffset:0;stroke-opacity:1;color-rendering:auto;image-rendering:auto;shape-rendering:auto;text-rendering:auto" transform="scale(-1)"><tspan x="-405.54" y="370.125" style="font-size:52.5px;line-height:1.25">2</tspan></text><path d="M322.065-550.568c-4.61-4.81-7.064-9.698-7.064-9.698s-2.453 4.888-7.064 9.698c-4.613 4.808-10.36 7.936-10.36 7.936s5.747 3.126 10.36 7.937c4.61 4.808 7.064 9.697 7.064 9.697s2.453-4.889 7.064-9.697c4.613-4.811 10.36-7.937 10.36-7.937s-5.747-3.128-10.36-7.936zm-14.128 134.415c4.61 4.81 7.064 9.698 7.064 9.698s2.453-4.888 7.064-9.698c4.613-4.808 10.36-7.935 10.36-7.935s-5.747-3.126-10.36-7.938c-4.61-4.808-7.064-9.696-7.064-9.696s-2.453 4.888-7.064 9.696c-4.613 4.812-10.36 7.938-10.36 7.938s5.747 3.127 10.36 7.935z" style="fill:#fe0000;fill-opacity:1;stroke:#000;stroke-width:.467135;stroke-miterlimit:4;stroke-dasharray:none;stroke-opacity:1"/><path d="M243.09-578.54c-5.123-5.346-7.848-10.778-7.848-10.778s-2.725 5.432-7.847 10.777c-5.125 5.344-11.51 8.82-11.51 8.82s6.385 3.474 11.51 8.82c5.122 5.344 7.847 10.776 7.847 10.776s2.725-5.432 7.847-10.775c5.125-5.347 11.51-8.821 11.51-8.821s-6.385-3.476-11.51-8.82zm143.76 193.313c5.123 5.345 7.848 10.777 7.848 10.777s2.725-5.432 7.847-10.777c5.125-5.344 11.51-8.82 11.51-8.82s-6.385-3.473-11.51-8.82c-5.122-5.344-7.847-10.776-7.847-10.776s-2.725 5.432-7.848 10.776c-5.124 5.347-11.509 8.82-11.509 8.82s6.385 3.476 11.51 8.82z" style="fill:#fe0000;fill-opacity:1;stroke:#000;stroke-width:.51904;stroke-miterlimit:4;stroke-dasharray:none;stroke-opacity:1"/></g></svg>