<svg xmlns="http://www.w3.org/2000/svg" width="210" height="315" viewBox="0 0 210 315"><g transform="translate(-210.001 324.891)"><rect width="209.004" height="314.004" x="210.499" y="-324.393" rx="15" ry="15" style="opacity:1;fill:#fdfeee;fill-opacity:1;stroke:#000;stroke-width:.996047;stroke-linecap:butt;stroke-linejoin:round;stroke-miterlimit:4;stroke-dasharray:none;stroke-opacity:1"/><path d="M265.499-249.394h99.005v164.005h-99.005z" style="opacity:1;fill:none;fill-opacity:1;stroke:#000;stroke-width:.995028;stroke-linecap:butt;stroke-linejoin:round;stroke-miterlimit:4;stroke-dasharray:none;stroke-opacity:1"/><path d="M244.961-275.905c-8.25 0-9.35 7.735-9.35 7.735s-1.102-7.735-9.352-7.735c-5.774 0-10.999 3.468-10.999 10.011 0 8.646 16.736 17.34 20.35 30.036 3.44-12.685 20.35-21.39 20.35-30.036 0-6.543-5.225-10.011-10.999-10.011zM385.676-60.15c8.25 0 9.35-7.736 9.35-7.736s1.102 7.736 9.351 7.736c5.775 0 11-3.468 11-10.012 0-8.646-16.736-17.34-20.35-30.035-3.44 12.684-20.35 21.39-20.35 30.035 0 6.544 5.224 10.012 10.999 10.012z" style="fill:#fe0000;fill-opacity:1;stroke:#000;stroke-width:.517766;stroke-miterlimit:4;stroke-dasharray:none;stroke-opacity:1"/><text xml:space="preserve" x="211.198" y="-291.5" style="color:#000;font-style:normal;font-variant:normal;font-weight:400;font-stretch:normal;line-height:0%;font-family:Arial;-inkscape-font-specification:&quot;Arial, Normal&quot;;text-indent:0;text-align:start;text-decoration:none;text-decoration-line:none;text-decoration-style:solid;text-decoration-color:#000;letter-spacing:0;word-spacing:0;text-transform:none;writing-mode:lr-tb;direction:ltr;baseline-shift:baseline;text-anchor:start;white-space:normal;clip-rule:nonzero;display:inline;overflow:visible;visibility:visible;opacity:1;isolation:auto;mix-blend-mode:normal;color-interpolation:sRGB;color-interpolation-filters:linearRGB;solid-color:#000;solid-opacity:1;fill:#fe0000;fill-opacity:1;fill-rule:nonzero;stroke:#000;stroke-width:1px;stroke-linecap:butt;stroke-linejoin:miter;stroke-miterlimit:4;stroke-dasharray:none;stroke-dashoffset:0;stroke-opacity:1;color-rendering:auto;image-rendering:auto;shape-rendering:auto;text-rendering:auto" transform="scale(1.03962 .9619)"><tspan x="211.198" y="-291.5" style="font-size:52.5px;line-height:1.25">2</tspan></text><text xml:space="preserve" x="-408.547" y="55.125" style="color:#000;font-style:normal;font-variant:normal;font-weight:400;font-stretch:normal;line-height:0%;font-family:Arial;-inkscape-font-specification:&quot;Arial, Normal&quot;;text-indent:0;text-align:start;text-decoration:none;text-decoration-line:none;text-decoration-style:solid;text-decoration-color:#000;letter-spacing:0;word-spacing:0;text-transform:none;writing-mode:lr-tb;direction:ltr;baseline-shift:baseline;text-anchor:start;white-space:normal;clip-rule:nonzero;display:inline;overflow:visible;visibility:visible;opacity:1;isolation:auto;mix-blend-mode:normal;color-interpolation:sRGB;color-interpolation-filters:linearRGB;solid-color:#000;solid-opacity:1;fill:#fe0000;fill-opacity:1;fill-rule:nonzero;stroke:#000;stroke-width:1px;stroke-linecap:butt;stroke-linejoin:miter;stroke-miterlimit:4;stroke-dasharray:none;stroke-dashoffset:0;stroke-opacity:1;color-rendering:auto;image-rendering:auto;shape-rendering:auto;text-rendering:auto" transform="scale(-1)"><tspan x="-408.547" y="55.125" style="font-size:52.5px;line-height:1.25">2</tspan></text><path d="M323.168-243.31c-7.205 0-8.167 6.748-8.167 6.748s-.962-6.748-8.167-6.748c-5.043 0-9.607 3.026-9.607 8.733 0 7.541 14.617 15.125 17.774 26.198 3.004-11.064 17.774-18.657 17.774-26.198 0-5.707-4.563-8.733-9.607-8.733zM306.834-91.124c7.205 0 8.167-6.747 8.167-6.747s.962 6.747 8.167 6.747c5.044 0 9.607-3.025 9.607-8.732 0-7.542-14.617-15.125-17.774-26.199-3.004 11.065-17.774 18.657-17.774 26.199 0 5.707 4.563 8.732 9.607 8.732z" style="fill:#fe0000;fill-opacity:1;stroke:#000;stroke-width:.45192;stroke-miterlimit:4;stroke-dasharray:none;stroke-opacity:1"/></g></svg>